<svg width="1080" height="1080" viewBox="0 0 1080 1080" fill="none" xmlns="http://www.w3.org/2000/svg">
<rect width="1080" height="1080" fill="#B085CC"/>
<path d="M424.032 295.576C421.472 283.8 418.656 273.048 415.584 263.32C413.024 253.592 410.208 243.864 407.136 234.136L538.464 213.4C539.488 221.08 540.512 231.064 541.536 243.352C543.072 255.64 544.864 266.648 546.912 276.376C548.448 285.08 550.752 299.416 553.824 319.384C557.408 338.84 561.76 362.392 566.88 390.04C572 417.176 577.632 446.616 583.776 478.36C589.92 509.592 596.064 541.336 602.208 573.592C608.352 605.848 614.24 636.824 619.872 666.52C625.504 695.704 630.624 722.072 635.232 745.624C639.84 768.664 643.424 786.84 645.984 800.152C648.544 811.416 651.616 823.96 655.2 837.784C658.784 851.608 662.368 865.176 665.952 878.488L532.32 901.528C530.272 886.68 528.736 872.344 527.712 858.52C526.688 844.696 524.896 832.152 522.336 820.888C520.288 809.112 517.216 792.216 513.12 770.2C509.536 748.184 504.928 722.84 499.296 694.168C494.176 665.496 488.544 635.288 482.4 603.544C476.256 571.8 470.112 540.056 463.968 508.312C458.336 476.056 452.704 445.848 447.072 417.688C441.952 389.528 437.344 364.952 433.248 343.96C429.152 322.456 426.08 306.328 424.032 295.576ZM218.208 386.2C231.52 385.176 244.32 384.408 256.608 383.896C269.408 382.872 281.696 381.592 293.472 380.056C304.224 378.52 319.84 376.472 340.32 373.912C360.8 370.84 384.096 367.512 410.208 363.928C436.832 359.832 464.224 355.736 492.384 351.64C521.056 347.032 548.704 342.68 575.328 338.584C601.952 333.976 625.504 329.88 645.984 326.296C666.976 322.712 683.104 319.896 694.368 317.848C707.168 315.288 721.248 312.472 736.608 309.4C751.968 305.816 765.024 302.488 775.776 299.416L798.048 420.76C788.32 421.272 775.52 422.808 759.648 425.368C744.288 427.416 730.464 429.208 718.176 430.744C704.352 432.792 686.176 435.608 663.648 439.192C641.12 442.776 616.288 446.872 589.152 451.48C562.016 455.576 534.368 459.928 506.208 464.536C478.048 469.144 451.168 473.496 425.568 477.592C400.48 481.688 378.464 485.272 359.52 488.344C340.576 491.416 326.752 493.72 318.048 495.256C305.248 497.816 292.96 500.376 281.184 502.936C269.92 505.496 257.12 508.824 242.784 512.92L218.208 386.2ZM220.512 613.528C231.264 613.016 245.088 611.992 261.984 610.456C278.88 608.408 293.728 606.36 306.528 604.312C320.352 602.264 338.784 599.448 361.824 595.864C384.864 592.28 410.72 588.184 439.392 583.576C468.064 578.968 497.504 574.36 527.712 569.752C558.432 564.632 588.128 559.768 616.8 555.16C645.472 550.04 671.584 545.432 695.136 541.336C719.2 537.24 738.4 533.912 752.736 531.352C767.584 528.28 782.432 524.952 797.28 521.368C812.64 517.784 825.952 514.456 837.216 511.384L861.792 633.496C850.528 634.008 836.704 635.544 820.32 638.104C804.448 640.664 789.088 643.224 774.24 645.784C758.368 648.344 738.144 651.672 713.568 655.768C689.504 659.352 662.88 663.704 633.696 668.824C604.512 673.432 574.56 678.296 543.84 683.416C513.632 688.024 484.448 692.888 456.288 698.008C428.128 702.616 402.784 706.968 380.256 711.064C358.24 714.648 340.832 717.72 328.032 720.28C310.624 723.352 294.752 726.168 280.416 728.728C266.592 731.288 255.328 733.848 246.624 736.408L220.512 613.528Z" fill="white"/>
</svg>
